<mxfile host="app.diagrams.net" modified="2024-03-26T22:25:31.687Z" agent="Mozilla/5.0 (Macintosh; Intel Mac OS X 10_15_7) AppleWebKit/537.36 (KHTML, like Gecko) Chrome/112.0.0.0 Safari/537.36" version="24.2.0" etag="VJ3nTjGwA4FDj2tzjfSC" type="github">
  <diagram name="Page-1" id="WaFTsOO7DgWTHYiWJN5w">
    <mxGraphModel>
      <root>
        <mxCell id="0" />
        <mxCell id="1" parent="0" />
      </root>
    </mxGraphModel>
  </diagram>
</mxfile>
